<svg width="19" height="13" viewBox="0 0 19 13" fill="none" xmlns="http://www.w3.org/2000/svg">
<rect x="0.5" y="0.5" width="18" height="12" fill="white" stroke="black"/>
<path d="M9.19077 3.04492C9.28452 3.04492 9.35679 3.0625 9.40757 3.09766C9.45835 3.12891 9.49546 3.1875 9.5189 3.27344C9.54624 3.35938 9.55991 3.48438 9.55991 3.64844C9.55991 3.8125 9.54624 3.9375 9.5189 4.02344C9.49546 4.10938 9.45835 4.16797 9.40757 4.19922C9.35679 4.23047 9.28452 4.24609 9.19077 4.24609H8.79234L6.66538 9.74805C6.61069 9.88867 6.52671 9.98633 6.41343 10.041C6.30015 10.0996 6.12437 10.1289 5.88609 10.1289C5.6478 10.1289 5.47202 10.0996 5.35874 10.041C5.24937 9.98242 5.16929 9.88477 5.11851 9.74805L3.06773 4.24609H2.61655C2.5228 4.24609 2.45054 4.23047 2.39976 4.19922C2.34898 4.16797 2.31187 4.10938 2.28843 4.02344C2.26109 3.9375 2.24741 3.8125 2.24741 3.64844C2.24741 3.48438 2.26109 3.35938 2.28843 3.27344C2.31187 3.1875 2.34898 3.12891 2.39976 3.09766C2.45054 3.0625 2.5228 3.04492 2.61655 3.04492H5.15952C5.25327 3.04492 5.32554 3.0625 5.37632 3.09766C5.4271 3.12891 5.46421 3.1875 5.48765 3.27344C5.51499 3.35938 5.52866 3.48438 5.52866 3.64844C5.52866 3.8125 5.51499 3.9375 5.48765 4.02344C5.46421 4.10938 5.4271 4.16797 5.37632 4.19922C5.32554 4.23047 5.25327 4.24609 5.15952 4.24609H4.63804L5.8978 7.83789L7.2396 4.24609H6.82359C6.72984 4.24609 6.65757 4.23047 6.60679 4.19922C6.55601 4.16797 6.51694 4.10938 6.4896 4.02344C6.46616 3.9375 6.45444 3.8125 6.45444 3.64844C6.45444 3.48438 6.46616 3.35938 6.4896 3.27344C6.51694 3.1875 6.55601 3.12891 6.60679 3.09766C6.65757 3.0625 6.72984 3.04492 6.82359 3.04492H9.19077ZM15.2174 2.91602C15.4596 2.91602 15.6256 2.94336 15.7155 2.99805C15.8053 3.05273 15.8502 3.14844 15.8502 3.28516V5.30078C15.8502 5.43359 15.7897 5.5293 15.6686 5.58789C15.5514 5.64258 15.3541 5.66992 15.0768 5.66992C14.8932 5.66992 14.7506 5.6582 14.6491 5.63477C14.5514 5.60742 14.4831 5.56836 14.444 5.51758C14.4049 5.4668 14.3854 5.39453 14.3854 5.30078C14.3854 4.96484 14.2838 4.70508 14.0807 4.52148C13.8776 4.33789 13.569 4.24609 13.1549 4.24609C12.612 4.24609 12.1999 4.44141 11.9186 4.83203C11.6374 5.22266 11.4967 5.78516 11.4967 6.51953C11.4967 7.24609 11.6452 7.80859 11.942 8.20703C12.2428 8.60156 12.6666 8.79883 13.2135 8.79883C13.6471 8.79883 14.0573 8.74023 14.444 8.62305V7.64453H13.3131C13.2194 7.64453 13.1471 7.62891 13.0963 7.59766C13.0456 7.56641 13.0065 7.50781 12.9791 7.42188C12.9557 7.33594 12.944 7.21094 12.944 7.04688C12.944 6.88281 12.9557 6.75781 12.9791 6.67188C13.0065 6.58594 13.0456 6.52734 13.0963 6.49609C13.1471 6.46094 13.2194 6.44336 13.3131 6.44336H16.0905C16.1842 6.44336 16.2565 6.46094 16.3073 6.49609C16.3581 6.52734 16.3952 6.58594 16.4186 6.67188C16.4459 6.75781 16.4596 6.88281 16.4596 7.04688C16.4596 7.21094 16.4459 7.33594 16.4186 7.42188C16.3952 7.50781 16.3581 7.56641 16.3073 7.59766C16.2565 7.62891 16.1842 7.64453 16.0905 7.64453H15.9088V9.16211C15.9088 9.25586 15.8893 9.33789 15.8502 9.4082C15.8151 9.47852 15.7643 9.53125 15.6979 9.56641C15.3346 9.75391 14.9362 9.89453 14.5026 9.98828C14.069 10.082 13.6198 10.1289 13.1549 10.1289C12.5143 10.1289 11.9499 9.98242 11.4616 9.68945C10.9733 9.39648 10.5944 8.97852 10.3249 8.43555C10.0592 7.88867 9.92641 7.25 9.92641 6.51953C9.92641 5.79297 10.0573 5.1582 10.319 4.61523C10.5807 4.06836 10.942 3.64844 11.403 3.35547C11.8678 3.0625 12.3932 2.91602 12.9791 2.91602C13.6666 2.91602 14.1745 3.14648 14.5026 3.60742V3.28516C14.5026 3.15234 14.5592 3.05859 14.6725 3.00391C14.7858 2.94531 14.9674 2.91602 15.2174 2.91602Z" fill="black"/>
</svg>
